<?xml version="1.0" encoding="utf-8"?>
<!-- Generator: Adobe Illustrator 26.5.0, SVG Export Plug-In . SVG Version: 6.00 Build 0)  -->
<svg version="1.1" id="Layer_1" xmlns="http://www.w3.org/2000/svg" xmlns:xlink="http://www.w3.org/1999/xlink" x="0px" y="0px"
	 viewBox="0 0 700 700" style="enable-background:new 0 0 700 700;" xml:space="preserve">
<g>
	<path d="M451.5,294c-6,19.4-24.1,33.6-45.5,33.6c-21.4,0-39.5-14.2-45.5-33.6H238c-7.7,0-14-6.3-14-14s6.3-14,14-14h122.5
		c6-19.4,24.1-33.6,45.5-33.6c21.4,0,39.5,14.2,45.5,33.6H462c7.7,0,14,6.3,14,14s-6.3,14-14,14H451.5z M406,260.4
		c-10.8,0-19.6,8.8-19.6,19.6c0,10.8,8.8,19.6,19.6,19.6c10.8,0,19.6-8.8,19.6-19.6C425.6,269.2,416.8,260.4,406,260.4z
		 M328.3,184.8c-6,19.4-24.1,33.6-45.5,33.6c-21.4,0-39.5-14.2-45.5-33.6c-7.4-0.4-13.3-6.5-13.3-14c0-7.5,5.9-13.6,13.3-14
		c6-19.5,24.1-33.6,45.5-33.6c21.4,0,39.5,14.2,45.5,33.6H462c7.7,0,14,6.3,14,14c0,7.7-6.3,14-14,14L328.3,184.8z M282.8,151.2
		c-10.8,0-19.6,8.8-19.6,19.6c0,10.8,8.8,19.6,19.6,19.6c10.8,0,19.6-8.8,19.6-19.6C302.4,160,293.6,151.2,282.8,151.2z
		 M367.5,403.2c-6,19.5-24.1,33.6-45.5,33.6c-21.4,0-39.5-14.2-45.5-33.6H238c-7.7,0-14-6.3-14-14c0-7.7,6.3-14,14-14h38.5
		c6-19.4,24.1-33.6,45.5-33.6c21.4,0,39.5,14.2,45.5,33.6H462c7.7,0,14,6.3,14,14c0,7.7-6.3,14-14,14H367.5z M322,369.6
		c-10.8,0-19.6,8.8-19.6,19.6c0,10.8,8.8,19.6,19.6,19.6c10.8,0,19.6-8.8,19.6-19.6C341.6,378.4,332.8,369.6,322,369.6z"/>
</g>
</svg>
